<?xml version="1.0" encoding="utf-8"?>
<!-- Generator: Adobe Illustrator 12.0.0, SVG Export Plug-In . SVG Version: 6.00 Build 51448)  -->
<!DOCTYPE svg PUBLIC "-//W3C//DTD SVG 1.1//EN" "http://www.w3.org/Graphics/SVG/1.1/DTD/svg11.dtd" [
	<!ENTITY ns_svg "http://www.w3.org/2000/svg">
	<!ENTITY ns_xlink "http://www.w3.org/1999/xlink">
]>
<svg  version="1.1" id="Layer_1" xmlns="&ns_svg;" xmlns:xlink="&ns_xlink;" width="385" height="385" viewBox="0 0 385 385"
	 overflow="visible" enable-background="new 0 0 385 385" xml:space="preserve">
<g>
	<g>
		<g>
			<path fill="#FFFFFF" d="M0.5,28.5c0-15.4638672,12.5356445-28,28-28h328c15.4638672,0,28,12.5361328,28,28v328
				c0,15.4648438-12.5361328,28-28,28h-328c-15.4643555,0-28-12.5351563-28-28V28.5L0.5,28.5z"/>
			<path fill="#FFFFFF" d="M192.5,192.5"/>
		</g>
		<g>
			<path fill="none" stroke="#000000" stroke-linecap="round" stroke-linejoin="round" stroke-miterlimit="3.863693" d="M0.5,28.5
				c0-15.4638672,12.5356445-28,28-28h328c15.4638672,0,28,12.5361328,28,28v328c0,15.4648438-12.5361328,28-28,28h-328
				c-15.4643555,0-28-12.5351563-28-28V28.5L0.5,28.5z"/>
			<path fill="none" stroke="#000000" stroke-linecap="round" stroke-linejoin="round" stroke-miterlimit="3.863693" d="
				M192.5,192.5"/>
		</g>
	</g>
	<g>
		<g>
			<path d="M6.5,28.5c0-12.1503906,9.8496094-22,22-22h328c12.1503906,0,22,9.8496094,22,22v328c0,12.1503906-9.8496094,22-22,22
				h-328c-12.1503906,0-22-9.8496094-22-22V28.5L6.5,28.5z"/>
			<path d="M192.5,192.5"/>
		</g>
	</g>
	<g>
		<g>
			<path fill="#FFFFFF" d="M14.5,28.5c0-7.7319336,6.2675781-14,14-14h328c7.7324219,0,14,6.2680664,14,14v328
				c0,7.7324219-6.2675781,14-14,14h-328c-7.7324219,0-14-6.2675781-14-14V28.5L14.5,28.5z"/>
			<path fill="#FFFFFF" d="M192.5,192.5"/>
		</g>
	</g>
	<g>
		<polygon fill-rule="evenodd" clip-rule="evenodd" points="203.3105469,117.1225586 187.9921875,108.8989258 
			141.1367188,118.9516602 97.8828125,86.0576172 74.456543,80.5776367 70.8525391,84.2314453 37.512207,81.4921875 28.5,28.5 
			142.0385742,28.5 143.8388672,31.2402344 145.6430664,38.5488281 262.7861328,39.4638672 266.390625,31.2402344 
			302.4326172,32.1547852 333.9726563,140.878418 327.6621094,179.2519531 336.6748047,230.4179688 351.0917969,258.7402344 
			356.5,287.9755859 356.5,323.609375 321.3554688,356.5 299.7304688,356.5 276.3007813,345.5371094 283.0820313,331.0449219 
			303.2890625,340.5 315.0371094,340.5 340.5,316.6699219 340.5,289.4433594 335.78125,263.9316406 321.3320313,235.546875 
			311.4326172,179.3442383 317.5966797,141.8569336 290.3271484,47.8525391 276.7304688,47.5078125 273.2070313,55.5458984 
			133.5249023,54.4545898 130.7080078,44.5 47.4506836,44.5 51.203125,66.5634766 64.7114258,67.6733398 69.3652344,62.9550781 
			104.8505859,71.2553711 144.9697266,101.7646484 190.3818359,92.0219727 210.8789063,103.0253906 		"/>
	</g>
</g>
<g>
	<path fill-rule="evenodd" clip-rule="evenodd" d="M42.7211914,301.7333984
		c0.3071289-9.0673828,1.4604492-17.3681641,3.4580078-24.8994141c1.9985352-7.53125,5.1489258-14.984375,9.4526367-22.3632813
		c3.2275391-5.8398438,7.2236328-11.2578125,11.9882813-16.2529297c4.7651367-4.9951172,9.8369141-9.4912109,15.2163086-13.4873047
		c1.3833008-0.7675781,2.612793-1.5751953,3.6889648-2.4199219c1.0756836-0.8457031,2.1518555-1.6523438,3.2275391-2.421875
		l8.2998047-4.3798828l7.6079102-4.3798828l7.3774414-4.1503906c3.0742188-1.9980469,5.5712891-4.4960938,7.4931641-7.4921875
		c1.9208984-2.9980469,2.8813477-6.1098633,2.8818359-9.3378906c0-2.9199219-0.7685547-5.6484375-2.3056641-8.184082
		c-1.5371094-2.5366211-3.5737305-4.7265625-6.109375-6.5708008c-2.5361328-1.8442383-5.4951172-3.3046875-8.8759766-4.3808594
		c-3.3818359-1.0756836-6.9936523-1.6132813-10.8359375-1.6132813c-7.8388672,0-14.1787109,1.8442383-19.0205078,5.5332031
		c-4.8413086,3.6884766-7.8769531,9.0678711-9.1064453,16.1381836l-24.4379883-5.3027344
		c2.612793-12.9106445,8.6069336-23.0161133,17.9829102-30.3168945C70.0791016,148.1503906,81.6064453,144.5,95.2861328,144.5
		c7.3774414,0,14.2553711,1.2299805,20.6337891,3.6889648s11.9116211,5.7636719,16.5996094,9.9135742
		c4.6875,4.1499023,8.4150391,9.0297852,11.1816406,14.6396484s4.1494141,11.565918,4.1494141,17.8676758
		c0,5.9936523-1.3447266,11.8725586-4.0341797,17.6362305c-2.6899414,5.7636719-6.5708008,10.875-11.6425781,15.3320313
		c-1.2294922,0.921875-2.3442383,1.7675781-3.3432617,2.5361328s-2.0366211,1.3837891-3.1123047,1.8447266l-7.6079102,4.8408203
		l-8.2998047,4.3798828l-7.6083984,4.3808594c-3.6884766,2.1523438-6.9545898,4.4189453-9.7978516,6.8007813
		c-2.84375,2.3828125-5.456543,4.9570313-7.8388672,7.7246094c-2.3823242,2.765625-4.6108398,5.8398438-6.6855469,9.2207031
		c-2.0751953,3.3818359-4.0351563,7.2246094-5.8793945,11.5273438h75.8500977v24.8994141H42.7211914z"/>
	<path fill-rule="evenodd" clip-rule="evenodd" d="M278.2792969,171.7045898
		c-1.3837891,1.690918-2.6523438,3.2280273-3.8046875,4.6113281s-2.2285156,2.7666016-3.2275391,4.1499023
		s-2.0361328,2.8432617-3.1123047,4.3803711c-1.0761719,1.5366211-2.2285156,3.3041992-3.4580078,5.3022461
		c-6.9169922,11.3740234-12.7958984,23.3623047-17.6376953,35.9658203
		c-4.8408203,12.6025391-8.5683594,25.1298828-11.1806641,37.5791016c-0.4619141,3.2275391-0.9228516,6.3398438-1.3837891,9.3369141
		s-0.8066406,5.9951172-1.0371094,8.9912109c-0.2304688,2.9980469-0.4228516,6.0712891-0.5761719,9.2226563
		c-0.1542969,3.1503906-0.2304688,6.6464844-0.2304688,10.4892578h-24.8994141
		c0.1533203-8.9150391,0.6914063-17.5214844,1.6132813-25.8212891c0.9228516-8.2988281,2.2675781-16.4453125,4.0341797-24.4375
		c1.7685547-7.9921875,4.0351563-15.9472656,6.8017578-23.8613281c2.7666016-7.9160156,6.0712891-15.9472656,9.9130859-24.0927734
		c2.6132813-5.8408203,5.4570313-11.5273438,8.53125-17.0605469c3.0732422-5.5332031,5.9941406-10.4516602,8.7597656-14.7553711
		h-73.7744141v-24.4379883h104.6689453V171.7045898z"/>
</g>
</svg>
