<svg version="1.1" xmlns="http://www.w3.org/2000/svg" xmlns:xlink="http://www.w3.org/1999/xlink" width="48" height="48"><defs><linearGradient x1="3.43485" y1="18.33891" x2="89.21698" y2="82.91486" gradientUnits="userSpaceOnUse" id="color-1"><stop offset="0" stop-color="#000000" stop-opacity="0.3"></stop><stop offset="1" stop-color="#000000" stop-opacity="0"></stop></linearGradient><filter id="dropshadow-base"><feColorMatrix type="matrix" values="0 0 0 0 0  0 0 0 0 0  0 0 0 0 0  0 0 0 .8 0"></feColorMatrix> <feOffset dx="0" dy="1"></feOffset> <feGaussianBlur stdDeviation="1"></feGaussianBlur> <feComposite in="SourceGraphic"></feComposite></filter><filter id="dropshadow-banner" x="-10%" y="-10%" width="120%" height="130%"><feColorMatrix type="matrix" values="0 0 0 0 0  0 0 0 0 0  0 0 0 0 0  0 0 0 .4 0"></feColorMatrix> <feOffset dx="0" dy="1"></feOffset> <feGaussianBlur stdDeviation="0.5"></feGaussianBlur> <feComposite in="SourceGraphic"></feComposite></filter></defs><g fill="none" fill-rule="nonzero" stroke="none" stroke-width="none" stroke-linecap="butt" stroke-linejoin="miter" stroke-miterlimit="10" stroke-dasharray="" stroke-dashoffset="0" font-family="none" font-weight="none" font-size="none" text-anchor="none" style="mix-blend-mode: normal"><path d="M2,24c0,-12.15026 9.84974,-22 22,-22c12.15026,0 22,9.84974 22,22c0,12.15026 -9.84974,22 -22,22c-12.15026,0 -22,-9.84974 -22,-22z" id="base 1 5" fill-opacity="0" fill="#512da8" stroke-width="1"></path><path d="M6.48531,36.96478c-0.0832,-0.0832 -0.1362,-0.19852 -0.1362,-0.3301l0,-0.9753l-1.37526,-1.37526c-0.35827,-0.35827 -0.30714,-0.96846 0.1366,-1.25513l5.35763,-3.45299l-0.02648,-0.09462l-4.31005,-4.31005c-1.6374,-1.6374 -2.69671,-3.84972 -2.69671,-6.83242l13.39916,13.39916c0.07536,-0.23099 0.13216,-0.46817 0.18377,-0.70709c0.0212,-0.10605 0.04666,-0.22058 0.06363,-0.33507c0.22482,-1.45077 0.07208,-2.89304 -0.54302,-4.23356c-0.31814,-0.69144 -0.75083,-1.34048 -1.26831,-1.89613c-0.17816,-0.19518 -0.28421,-0.30543 -0.28421,-0.30543c0,0 0.12302,0.08483 0.3436,0.23755c0.36921,0.25441 0.72708,0.54743 1.04871,0.86906l4.3781,4.3781c0.34395,0.0124 0.59055,0.02112 0.6265,0.02562l8.09868,8.09868c0.00353,-0.04948 -0.00182,-0.10114 -0.01771,-0.15342l-0.26724,-0.8739c-0.05939,-0.19512 0.0297,-0.40299 0.20785,-0.50056l0.39222,-0.27372l-3.34893,-3.34893h6.33968l-4.0564,-4.0564c-0.51965,-0.51965 -0.84098,-1.2376 -0.84098,-2.03086h1.08594l1.62594,1.62594c0.33346,0.16609 0.7483,0.12301 1.04227,-0.14124l0.59916,-0.5408l-5.50557,-5.50557c-0.26566,-0.26566 -0.43004,-0.63261 -0.43004,-1.03775c0,-0.81023 0.65751,-1.46773 1.46773,-1.46773c0.40511,0 0.77205,0.16438 1.0377,0.43003l7.51156,7.51156l0.80433,-0.72596l1.47312,1.47312c0.3349,0.17115 0.75436,0.12961 1.05086,-0.1369l1.64589,-1.4847h0.41996c1.42107,0 2.60034,-1.04354 2.81245,-2.40518h0.03393v-3.16876l-2.52396,-2.52396h1.80284l0.00002,-0.00008c0.19832,0 0.37776,0.07975 0.50803,0.21002l1.29167,1.29167c0.234,1.28593 0.35622,2.61083 0.35622,3.96429c0,12.15026 -9.84974,22 -22,22c-4.47368,0 -8.63549,-1.33531 -12.10859,-3.62912z" fill="url(#color-1)" stroke-width="1"></path><path d="M43.84406,18.53411h-1.80285c-0.39871,0 -0.72114,0.32239 -0.72114,0.72114v0.84411h-9.96869c-0.41147,-1.59075 -1.85375,-2.76154 -3.57176,-2.76154c-1.59075,0 -2.9439,1.00535 -3.46567,2.41794l-0.89082,-0.93324c-0.34784,-0.36481 -0.9248,-0.39026 -1.30229,-0.0509l-1.47197,1.33199h-0.01273l-1.21745,-1.28108c-0.34784,-0.36481 -0.92476,-0.39026 -1.30229,-0.0509l-1.47197,1.32774h-0.01273l-1.21745,-1.27684c-0.34784,-0.36481 -0.92476,-0.39026 -1.30229,-0.0509l-1.28108,1.15382c-1.8792,-0.53873 -3.24937,-2.26947 -3.24937,-4.31835c0,-1.84951 1.13261,-3.51237 2.85911,-4.18685l1.87072,-0.72962c0.53873,-0.20786 0.33936,-1.01384 -0.23331,-0.95021l-3.27906,0.36481c-4.7171,0.6363 -7.3641,4.01293 -7.3641,8.23371c0,4.9292 2.89304,7.75441 6.50722,9.35789l0.52601,1.8792l-5.35764,3.45298c-0.47935,0.30967 -0.50056,0.99687 -0.04242,1.33623l1.03505,0.76356c0.15271,0.08056 0.24604,0.24175 0.24604,0.41143v1.09448c0,0.32239 0.31815,0.54718 0.61933,0.44113l0.4751,-0.1654l6.09999,-2.12948c1.25563,-0.49211 2.57489,-1.39137 3.14332,-2.65973c0.15695,-0.34784 0.25028,-0.7169 0.33092,-1.09019c0.02121,-0.10605 0.04666,-0.22058 0.06363,-0.33508c0.22483,-1.45076 0.07207,-2.89304 -0.54302,-4.23355c-0.31815,-0.69145 -0.75083,-1.34047 -1.26831,-1.89613c-0.17816,-0.19517 -0.28421,-0.30542 -0.28421,-0.30542c0,0 0.12302,0.08484 0.3436,0.23755c0.5048,0.34784 0.98839,0.76784 1.38713,1.23446c0.48783,0.57267 0.90355,1.18776 1.23018,1.86648c0.24179,0.50476 0.43268,1.05201 0.54722,1.59919c0.02545,0.11453 0.04666,0.23331 0.07211,0.34784c0.00424,0.03394 0.01273,0.06363 0.01693,0.09757c0.90779,0.06791 2.69795,0.11453 2.79972,0.12726v1.84103c0,2.21432 1.34895,4.20382 3.41056,5.02252l4.11045,1.59919c0.33092,0.12726 0.66179,-0.18241 0.55994,-0.51748l-0.26725,-0.87389c-0.05939,-0.19513 0.02969,-0.40299 0.20786,-0.50056l0.58959,-0.41147c0.4242,-0.30118 0.39875,-0.93748 -0.05515,-1.20048l-3.49116,-2.01071h14.90213c1.7774,0 3.21543,-1.43799 3.21543,-3.21543h-13.80341c-1.58651,0 -2.87183,-1.28532 -2.87183,-2.87183h1.08595l1.36592,1.43384c0.34784,0.36481 0.92476,0.39022 1.30229,0.05086l1.48041,-1.33623l1.22174,1.28537c0.3478,0.36481 0.92476,0.39022 1.30225,0.05086l1.48046,-1.33623l1.22169,1.28537c0.34784,0.36481 0.92476,0.39022 1.30229,0.05086l1.64589,-1.4847h0.41996c1.42107,0 2.60034,-1.04353 2.81244,-2.40517h0.03394v-4.96322c0.00004,-0.40723 -0.32235,-0.72958 -0.7211,-0.72958zM27.77538,22.50037c-0.81022,0 -1.46773,-0.65751 -1.46773,-1.46777c0,-0.81022 0.65751,-1.46773 1.46773,-1.46773c0.81022,0 1.46773,0.65751 1.46773,1.46773c-0.00004,0.81026 -0.65755,1.46777 -1.46773,1.46777z" fill="none" stroke-width="0"></path><path d="M44.56515,19.26369v4.96322h-0.03394c-0.2121,1.36164 -1.39137,2.40517 -2.81244,2.40517h-0.41996l-1.64589,1.4847c-0.37754,0.33936 -0.95445,0.31395 -1.30229,-0.05086l-1.22169,-1.28537l-1.48046,1.33623c-0.3775,0.33936 -0.95445,0.31395 -1.30225,-0.05086l-1.22174,-1.28537l-1.48041,1.33623c-0.37754,0.33936 -0.95445,0.31395 -1.30229,-0.05086l-1.36592,-1.43384h-1.08595c0,1.58651 1.28532,2.87183 2.87183,2.87183h13.80341c0,1.77744 -1.43804,3.21543 -3.21543,3.21543h-14.90213l3.49116,2.01071c0.45389,0.263 0.47935,0.8993 0.05515,1.20048l-0.58959,0.41147c-0.17816,0.09757 -0.26725,0.30542 -0.20786,0.50056l0.26725,0.87389c0.10185,0.33508 -0.22903,0.64474 -0.55994,0.51748l-4.11045,-1.59919c-2.06161,-0.81871 -3.41056,-2.8082 -3.41056,-5.02252v-1.84103c-0.10177,-0.01273 -1.89193,-0.05935 -2.79972,-0.12726c-0.0042,-0.03394 -0.01268,-0.06363 -0.01693,-0.09757c-0.02545,-0.11453 -0.04666,-0.23331 -0.07211,-0.34784c-0.11453,-0.54718 -0.30542,-1.09443 -0.54722,-1.59919c-0.32663,-0.67872 -0.74235,-1.29381 -1.23018,-1.86648c-0.39875,-0.46662 -0.88234,-0.88662 -1.38713,-1.23446c-0.22058,-0.15271 -0.3436,-0.23755 -0.3436,-0.23755c0,0 0.10605,0.11025 0.28421,0.30542c0.51748,0.55566 0.95016,1.20468 1.26831,1.89613c0.61509,1.34051 0.76784,2.78279 0.54302,4.23355c-0.01697,0.11449 -0.04242,0.22903 -0.06363,0.33508c-0.08064,0.3733 -0.17396,0.74235 -0.33092,1.09019c-0.56843,1.26836 -1.88769,2.16762 -3.14332,2.65973l-6.09999,2.12948l-0.4751,0.1654c-0.30118,0.10605 -0.61933,-0.11873 -0.61933,-0.44113v-1.09448c0,-0.16968 -0.09332,-0.33088 -0.24604,-0.41143l-1.03505,-0.76356c-0.45814,-0.33936 -0.43693,-1.02656 0.04242,-1.33623l5.35764,-3.45298l-0.52601,-1.8792c-3.61418,-1.60347 -6.50722,-4.42869 -6.50722,-9.35789c0,-4.22079 2.64701,-7.59741 7.3641,-8.23371l3.27906,-0.36481c0.57267,-0.06363 0.77204,0.74235 0.23331,0.95021l-1.87072,0.72962c-1.72649,0.67448 -2.85911,2.33734 -2.85911,4.18685c0,2.04888 1.37016,3.77962 3.24937,4.31835l1.28108,-1.15382c0.37754,-0.33936 0.95445,-0.31391 1.30229,0.0509l1.21745,1.27684h0.01273l1.47197,-1.32774c0.37754,-0.33936 0.95445,-0.31391 1.30229,0.0509l1.21745,1.28108h0.01273l1.47197,-1.33199c0.3775,-0.33936 0.95445,-0.31391 1.30229,0.0509l0.89082,0.93324c0.52177,-1.41258 1.87492,-2.41794 3.46567,-2.41794c1.71801,0 3.16029,1.17079 3.57176,2.76154h9.96869v-0.84411c0,-0.39875 0.32243,-0.72114 0.72114,-0.72114h1.80285c0.39875,0 0.72114,0.32235 0.7211,0.72958zM29.24311,21.0326c0,-0.81022 -0.65751,-1.46773 -1.46773,-1.46773c-0.81022,0 -1.46773,0.65751 -1.46773,1.46773c0,0.81026 0.65751,1.46777 1.46773,1.46777c0.81018,0 1.46769,-0.65751 1.46773,-1.46777z" fill="#ffffff" stroke-width="0"></path><path d="M2,24c0,-12.15026 9.84974,-22 22,-22c12.15026,0 22,9.84974 22,22c0,12.15026 -9.84974,22 -22,22c-12.15026,0 -22,-9.84974 -22,-22z" id="base 1 1 1" fill="none" stroke-width="1"></path><g id="Capa_1 1 1" fill="#000000" stroke-width="1" font-family="Roboto, sans-serif" font-weight="normal" font-size="14" text-anchor="start"><g></g><g></g><g></g><g></g><g></g><g></g><g></g><g></g><g></g><g></g><g></g><g></g><g></g><g></g><g></g><g></g></g><rect x="2" y="2" width="44" height="22" fill="none" stroke-width="1"></rect><path d="M2,24v-22h44v22z" fill="none" stroke-width="1"></path><path d="M2,24v-22h44v22z" fill="none" stroke-width="1"></path><path d="M2,24v-22h44v22z" fill="none" stroke-width="1"></path><path d="M2,24v-22h44v22z" fill="none" stroke-width="1"></path></g></svg>